<svg xmlns:xlink="http://www.w3.org/1999/xlink" width="200.0000000000001" xmlns="http://www.w3.org/2000/svg" id="screenshot" version="1.1" viewBox="0 1.4210854715202004e-14 200.0000000000001 200" height="200" style="-webkit-print-color-adjust: exact;"><rect x="0" y="0" width="200" height="200" class="frame-background" style="fill: rgb(255, 255, 255); fill-opacity: 1;"/><g id="shape-af5f51f0-4e2c-11ec-9f8b-1b7024054445"><g id="shape-65c42250-4e22-11ec-9f8b-1b7024054445"><rect rx="0" ry="0" x="100" y="100" transform="matrix(1.0000000000000002,0,0,1,-2.842170943040401e-14,0)" width="100" height="100" style="fill: rgb(181, 255, 166); fill-opacity: 1;"/></g><g id="shape-6870f2d0-4e22-11ec-9f8b-1b7024054445"><rect rx="0" ry="0" x="0" y="100" transform="matrix(1.0000000000000002,0,0,1,-1.4210854715202004e-14,0)" width="100" height="100" style="fill: rgb(130, 243, 255); fill-opacity: 1;"/></g><g id="shape-6351c2c0-4e22-11ec-9f8b-1b7024054445"><rect rx="0" ry="0" x="100" y="0" transform="matrix(1.0000000000000002,0,0,1,-2.842170943040401e-14,0)" width="100" height="100" style="fill: rgb(253, 255, 156); fill-opacity: 1;"/></g><g id="shape-5d32fd00-4e22-11ec-9f8b-1b7024054445"><rect rx="0" ry="0" x="0" y="0" transform="matrix(1.0000000000000002,0,0,1,-1.4210854715202004e-14,0)" width="100" height="100" style="fill: rgb(255, 148, 148); fill-opacity: 1;"/></g></g><g id="shape-a97f9100-4e2c-11ec-9f8b-1b7024054445"><g id="shape-4d690480-4e24-11ec-9f8b-1b7024054445"><path d="M149.99999996731538,139.999999838171L149.99999996731538,139.999999838171ZL149.99999996731538,139.999999838171ZL149.99999998338092,160.0000001140103C136.20212438764997,160.00000001218316,125,148.79787561907406,125,135C125,121.20212438092591,136.20212438764997,109.9999999878168,150,109.9999999878168C163.79787556763984,109.9999999878168,174.9999999274023,121.202124308328,175,134.99999986586968L175,134.99999986586968L155,134.9999998658697C154.9999999274023,132.24042486785615,152.7595750777599,130.00000011401036,150,130.00000011401036C147.24042487753002,130.00000011401036,145,132.240424940454,145,135C145,137.75405590942685,147.23147213971936,139.99103611008294,149.99999996731538,139.999999838171ZC149.98896377611118,139.99999092429033,149.99448084975506,139.99999988598964,149.99999996731538,139.999999838171ZC150.02759571861418,139.99999983855116,150.05518108690785,140.00004464742813,149.99999996731538,139.999999838171ZC163.84263930565044,140.04481890882437,174.99999998718192,151.22972017239113,174.9999999999999,165.00000002327113C175.00000001284366,178.79787564234522,163.79787563562104,190.0000000250269,150.000000023271,190.0000000121832C136.2021244726211,189.99999999933948,125.00000011302893,178.79787569598813,125,165.00000016182906L124.99999997230145,165.00000016182898L125.00000000000011,165.000000161829L145,165.00000011751132C145.00000006250002,167.75957516403574,147.24042497239793,169.99999993517997,150.00000008540633,169.9999998859896C152.7595752078763,169.99999983679925,155.00000004713706,167.75957497041927,155,164.9999999108733C154.99999995286305,162.2404248742564,152.75957507429484,160.00000010205096,149.99999998338092,160.0000001140103" style="fill: rgb(146, 128, 255); fill-opacity: 1;"/></g><g id="shape-352f94f0-4e25-11ec-9f8b-1b7024054445"><path d="M59.99999999999966,110.00000000000006L90,110.00000000000006L90,129.99999999999994L59.999999999999545,129.99999999999994L60,189.99999999999994L40,189.99999999999994L40,130L10,129.99999999999994L10,110.00000000000006L39.999999999999545,110.00000000000006L59.99999999999966,110.00000000000006Z" style="fill: rgb(146, 128, 255); fill-opacity: 1;"/></g><g id="shape-c058c360-4e22-11ec-9f8b-1b7024054445"><path d="M150,10.000000002909019C172.07660097975997,10.000000002909019,190,27.923399021845526,190,50C190,72.07660097815446,172.07660097975997,89.99999999709098,150,89.99999999709098C127.92339902024003,89.99999999709098,110,72.07660097815446,110,50C110,27.923399021845526,127.92339902024003,10.000000002909019,150,10.000000002909019ZM150.00000034906589,30.000000001454524C138.96169985918584,29.999999808799842,130.00000019265462,38.96169916185691,130,49.99999965093414C129.99999980734526,61.03830014001136,138.96169916105407,69.99999980589081,149.99999965093411,69.99999999854549C161.03830014081416,70.00000019120017,169.99999980734526,61.03830083814307,170,50.00000034906586C170.00000019265462,38.96169985998863,161.03830083894593,30.000000194109205,150.00000034906589,30.000000001454524Z" style="fill: rgb(146, 128, 255); fill-opacity: 1;"/></g><g id="shape-1a26f540-4e25-11ec-9f8b-1b7024054445"><path d="M70,36.5L50,63L29.999999999999773,36.499999999999844L30,89.99999999999997L10,89.99999999999997L10,10.000000000000043L30,10.000000000000057L50.000000000000114,36.66666666666683L69.99999999999977,10.000000000000284L90,10.000000000000028L90,90L70,90L70,36.5Z" style="fill: rgb(146, 128, 255); fill-opacity: 1;"/></g></g></svg>